<svg width="195" height="181" viewBox="0 0 195 181" fill="none" xmlns="http://www.w3.org/2000/svg">
<path fill-rule="evenodd" clip-rule="evenodd" d="M128.268 90.5L82.7015 111.838C94.2692 120.999 104.92 123.517 114.655 119.39C124.389 115.261 128.927 105.631 128.268 90.5ZM151.643 119.39C145.811 153.953 112.009 181 75.0044 181C36.3467 181 4.5216 152.198 0.847162 115.352C-3.94001 80.1315 11.5623 52.6718 47.334 32.9845L136.577 0L114.655 32.5237L174.042 19.5351L149.586 46.9707L195 50.4683L156.438 94.3942L151.643 119.39ZM21.9412 90.5801L67.5074 111.918C55.9397 121.079 45.2886 123.595 35.5542 119.466C25.8224 115.34 21.2847 105.711 21.9412 90.5801Z" fill="#1F1F1F"/>
</svg>
